{
  "source": "C:\\Users\\mbnyau\\Desktop\\stuff\\MIUN\\quantitative_research\\video_compression\\videos\\Jockey_1920x1080_120fps_420_8bit_YUV.mp4",
  "output": "C:\\Users\\mbnyau\\Desktop\\stuff\\MIUN\\quantitative_research\\video_compression\\compressed_videos\\Jockey_1920x1080_120fps_420_8bit_YUV_vp9.webm",
  "codec": "vp9",
  "ok": "Input #0, mov,mp4,m4a,3gp,3g2,mj2, from 'C:\\Users\\mbnyau\\Desktop\\stuff\\MIUN\\quantitative_research\\video_compression\\videos\\Jockey_1920x1080_120fps_420_8bit_YUV.mp4':\n  Metadata:\n    major_brand     : isom\n    minor_version   : 512\n    compatible_brands: isomiso2mp41\n    encoder         : Lavf58.76.100\n  Duration: 00:00:20.00, start: 0.000000, bitrate: 8918 kb/s\n  Stream #0:0[0x1](und): Video: mpeg4 (Simple Profile) (mp4v / 0x7634706D), yuv420p, 1920x1080 [SAR 1:1 DAR 16:9], 8916 kb/s, 30 fps, 30 tbr, 15360 tbn (default)\n    Metadata:\n      handler_name    : VideoHandler\n      vendor_id       : [0][0][0][0]\n[out#0/webm @ 000001185f899ac0] Codec AVOption b:a (set bitrate (in bits/s)) has not been used for any stream. The most likely reason is either wrong type (e.g. a video option with no video streams) or that it is a private option of some decoder which was not actually used for any stream.\nStream mapping:\n  Stream #0:0 -> #0:0 (mpeg4 (native) -> vp9 (libvpx-vp9))\nPress [q] to stop, [?] for help\n[libvpx-vp9 @ 000001185f89f6c0] v1.15.2-100-g40561f514\nOutput #0, webm, to 'C:\\Users\\mbnyau\\Desktop\\stuff\\MIUN\\quantitative_research\\video_compression\\compressed_videos\\Jockey_1920x1080_120fps_420_8bit_YUV_vp9.webm':\n  Metadata:\n    major_brand     : isom\n    minor_version   : 512\n    compatible_brands: isomiso2mp41\n    encoder         : Lavf62.3.100\n  Stream #0:0(und): Video: vp9, yuv420p(tv, progressive), 1920x1080 [SAR 1:1 DAR 16:9], q=2-31, 2000 kb/s, 30 fps, 1k tbn (default)\n    Metadata:\n      encoder         : Lavc62.11.100 libvpx-vp9\n      handler_name    : VideoHandler\n      vendor_id       : [0][0][0][0]\n    Side data:\n      cpb: bitrate max/min/avg: 0/0/0 buffer size: 2000000 vbv_delay: N/A\nframe=    0 fps=0.0 q=0.0 size=       0KiB time=N/A bitrate=N/A speed=N/A elapsed=0:00:00.51    \nframe=    3 fps=2.9 q=54.0 size=       1KiB time=00:00:00.10 bitrate=  50.4kbits/s speed=0.0956x elapsed=0:00:01.04    \nframe=    8 fps=5.1 q=36.0 size=       1KiB time=00:00:00.26 bitrate=  18.9kbits/s speed=0.169x elapsed=0:00:01.57    \nframe=   10 fps=4.7 q=35.0 size=       1KiB time=00:00:00.33 bitrate=  15.1kbits/s speed=0.158x elapsed=0:00:02.11    \nframe=   14 fps=5.3 q=33.0 size=       1KiB time=00:00:00.46 bitrate=  10.8kbits/s speed=0.176x elapsed=0:00:02.64    \nframe=   18 fps=5.7 q=32.0 size=       1KiB time=00:00:00.60 bitrate=   8.4kbits/s speed=0.189x elapsed=0:00:03.18    \nframe=   20 fps=5.3 q=32.0 size=       1KiB time=00:00:00.66 bitrate=   7.6kbits/s speed=0.178x elapsed=0:00:03.74    \nframe=   25 fps=5.8 q=31.0 size=       1KiB time=00:00:00.80 bitrate=   6.3kbits/s speed=0.185x elapsed=0:00:04.31    \nframe=   30 fps=5.9 q=32.0 size=       1KiB time=00:00:01.00 bitrate=   5.0kbits/s speed=0.196x elapsed=0:00:05.08    \nframe=   33 fps=5.7 q=31.0 size=       1KiB time=00:00:01.10 bitrate=   4.6kbits/s speed=0.191x elapsed=0:00:05.76    \nframe=   37 fps=5.9 q=32.0 size=       1KiB time=00:00:01.20 bitrate=   4.2kbits/s speed=0.191x elapsed=0:00:06.28    \nframe=   40 fps=5.8 q=33.0 size=       1KiB time=00:00:01.33 bitrate=   3.8kbits/s speed=0.194x elapsed=0:00:06.86    \nframe=   43 fps=5.8 q=29.0 size=       1KiB time=00:00:01.43 bitrate=   3.5kbits/s speed=0.193x elapsed=0:00:07.42    \nframe=   46 fps=5.8 q=30.0 size=       1KiB time=00:00:01.53 bitrate=   3.3kbits/s speed=0.193x elapsed=0:00:07.95    \nframe=   48 fps=5.6 q=31.0 size=       1KiB time=00:00:01.60 bitrate=   3.1kbits/s speed=0.188x elapsed=0:00:08.51    \nframe=   52 fps=5.8 q=32.0 size=       1KiB time=00:00:01.73 bitrate=   2.9kbits/s speed=0.192x elapsed=0:00:09.03    \nframe=   54 fps=5.6 q=31.0 size=       1KiB time=00:00:01.80 bitrate=   2.8kbits/s speed=0.188x elapsed=0:00:09.55    \nframe=   58 fps=5.8 q=31.0 size=       1KiB time=00:00:01.93 bitrate=   2.6kbits/s speed=0.192x elapsed=0:00:10.08    \nframe=   60 fps=5.6 q=32.0 size=       1KiB time=00:00:02.00 bitrate=   2.5kbits/s speed=0.188x elapsed=0:00:10.62    \nframe=   63 fps=5.6 q=32.0 size=       1KiB time=00:00:02.10 bitrate=   2.4kbits/s speed=0.188x elapsed=0:00:11.16    \nframe=   65 fps=5.6 q=20.0 size=       1KiB time=00:00:02.16 bitrate=   2.3kbits/s speed=0.185x elapsed=0:00:11.69    \nframe=   68 fps=5.6 q=31.0 size=       1KiB time=00:00:02.26 bitrate=   2.2kbits/s speed=0.186x elapsed=0:00:12.21    \nframe=   70 fps=5.5 q=31.0 size=       1KiB time=00:00:02.33 bitrate=   2.2kbits/s speed=0.183x elapsed=0:00:12.76    \nframe=   74 fps=5.6 q=32.0 size=       1KiB time=00:00:02.46 bitrate=   2.0kbits/s speed=0.186x elapsed=0:00:13.28    \nframe=   76 fps=5.5 q=31.0 size=       1KiB time=00:00:02.53 bitrate=   2.0kbits/s speed=0.183x elapsed=0:00:13.82    \nframe=   78 fps=5.4 q=31.0 size=       1KiB time=00:00:02.60 bitrate=   1.9kbits/s speed=0.181x elapsed=0:00:14.34    \nframe=   82 fps=5.5 q=31.0 size=       1KiB time=00:00:02.73 bitrate=   1.8kbits/s speed=0.184x elapsed=0:00:14.86    \nframe=   84 fps=5.5 q=31.0 size=       1KiB time=00:00:02.80 bitrate=   1.8kbits/s speed=0.182x elapsed=0:00:15.38    \nframe=   87 fps=5.5 q=31.0 size=       1KiB time=00:00:02.90 bitrate=   1.7kbits/s speed=0.182x elapsed=0:00:15.91    \nframe=   90 fps=5.5 q=32.0 size=       1KiB time=00:00:03.00 bitrate=   1.7kbits/s speed=0.183x elapsed=0:00:16.43    \nframe=   94 fps=5.5 q=31.0 size=       1KiB time=00:00:03.13 bitrate=   1.6kbits/s speed=0.185x elapsed=0:00:16.96    \nframe=   97 fps=5.5 q=31.0 size=       1KiB time=00:00:03.20 bitrate=   1.6kbits/s speed=0.183x elapsed=0:00:17.49    \nframe=  100 fps=5.5 q=32.0 size=       1KiB time=00:00:03.33 bitrate=   1.5kbits/s speed=0.185x elapsed=0:00:18.02    \nframe=  104 fps=5.6 q=33.0 size=       1KiB time=00:00:03.46 bitrate=   1.5kbits/s speed=0.187x elapsed=0:00:18.52    \nframe=  108 fps=5.7 q=33.0 size=       1KiB time=00:00:03.60 bitrate=   1.4kbits/s speed=0.189x elapsed=0:00:19.04    \nframe=  112 fps=5.7 q=33.0 size=       1KiB time=00:00:03.73 bitrate=   1.4kbits/s speed=0.191x elapsed=0:00:19.56    \nframe=  117 fps=5.8 q=33.0 size=       1KiB time=00:00:03.90 bitrate=   1.3kbits/s speed=0.194x elapsed=0:00:20.08    \nframe=  121 fps=5.9 q=34.0 size=       1KiB time=00:00:04.03 bitrate=   1.2kbits/s speed=0.196x elapsed=0:00:20.59    \nframe=  126 fps=6.0 q=34.0 size=       1KiB time=00:00:04.20 bitrate=   1.2kbits/s speed=0.199x elapsed=0:00:21.10    \nframe=  131 fps=6.1 q=32.0 size=     768KiB time=00:00:04.36 bitrate=1440.8kbits/s speed=0.202x elapsed=0:00:21.64    \nframe=  135 fps=6.1 q=18.0 size=     768KiB time=00:00:04.50 bitrate=1398.1kbits/s speed=0.203x elapsed=0:00:22.16    \nframe=  140 fps=6.2 q=32.0 size=     768KiB time=00:00:04.66 bitrate=1348.2kbits/s speed=0.206x elapsed=0:00:22.69    \nframe=  144 fps=6.2 q=32.0 size=     768KiB time=00:00:04.80 bitrate=1310.7kbits/s speed=0.207x elapsed=0:00:23.22    \nframe=  149 fps=6.3 q=32.0 size=     768KiB time=00:00:04.96 bitrate=1266.7kbits/s speed=0.209x elapsed=0:00:23.75    \nframe=  154 fps=6.3 q=33.0 size=     768KiB time=00:00:05.13 bitrate=1225.6kbits/s speed=0.212x elapsed=0:00:24.26    \nframe=  159 fps=6.4 q=33.0 size=     768KiB time=00:00:05.30 bitrate=1187.1kbits/s speed=0.214x elapsed=0:00:24.78    \nframe=  164 fps=6.5 q=34.0 size=     768KiB time=00:00:05.46 bitrate=1150.9kbits/s speed=0.216x elapsed=0:00:25.29    \nframe=  169 fps=6.5 q=34.0 size=     768KiB time=00:00:05.63 bitrate=1116.8kbits/s speed=0.218x elapsed=0:00:25.83    \nframe=  174 fps=6.6 q=35.0 size=     768KiB time=00:00:05.80 bitrate=1084.7kbits/s speed=0.22x elapsed=0:00:26.33    \nframe=  179 fps=6.7 q=34.0 size=     768KiB time=00:00:05.96 bitrate=1054.4kbits/s speed=0.222x elapsed=0:00:26.88    \nframe=  184 fps=6.7 q=34.0 size=     768KiB time=00:00:06.13 bitrate=1025.8kbits/s speed=0.224x elapsed=0:00:27.39    \nframe=  189 fps=6.8 q=39.0 size=     768KiB time=00:00:06.30 bitrate= 998.6kbits/s speed=0.226x elapsed=0:00:27.90    \nframe=  194 fps=6.8 q=40.0 size=     768KiB time=00:00:06.46 bitrate= 972.9kbits/s speed=0.227x elapsed=0:00:28.42    \nframe=  198 fps=6.8 q=34.0 size=     768KiB time=00:00:06.60 bitrate= 953.3kbits/s speed=0.228x elapsed=0:00:28.94    \nframe=  202 fps=6.9 q=34.0 size=     768KiB time=00:00:06.73 bitrate= 934.4kbits/s speed=0.229x elapsed=0:00:29.45    \nframe=  206 fps=6.9 q=40.0 size=     768KiB time=00:00:06.86 bitrate= 916.2kbits/s speed=0.229x elapsed=0:00:29.97    \nframe=  211 fps=6.9 q=40.0 size=     768KiB time=00:00:07.03 bitrate= 894.5kbits/s speed=0.231x elapsed=0:00:30.48    \nframe=  216 fps=7.0 q=35.0 size=     768KiB time=00:00:07.20 bitrate= 873.8kbits/s speed=0.232x elapsed=0:00:30.99    \nframe=  220 fps=7.0 q=35.0 size=     768KiB time=00:00:07.33 bitrate= 857.9kbits/s speed=0.233x elapsed=0:00:31.51    \nframe=  224 fps=7.0 q=34.0 size=     768KiB time=00:00:07.46 bitrate= 842.6kbits/s speed=0.233x elapsed=0:00:32.04    \nframe=  227 fps=7.0 q=23.0 size=     768KiB time=00:00:07.56 bitrate= 831.5kbits/s speed=0.232x elapsed=0:00:32.55    \nframe=  230 fps=7.0 q=35.0 size=     768KiB time=00:00:07.66 bitrate= 820.6kbits/s speed=0.232x elapsed=0:00:33.08    \nframe=  233 fps=6.9 q=24.0 size=     768KiB time=00:00:07.76 bitrate= 810.1kbits/s speed=0.231x elapsed=0:00:33.59    \nframe=  237 fps=6.9 q=35.0 size=     768KiB time=00:00:07.90 bitrate= 796.4kbits/s speed=0.232x elapsed=0:00:34.10    \nframe=  240 fps=6.9 q=35.0 size=     768KiB time=00:00:08.00 bitrate= 786.4kbits/s speed=0.231x elapsed=0:00:34.62    \nframe=  244 fps=6.9 q=35.0 size=     768KiB time=00:00:08.13 bitrate= 773.5kbits/s speed=0.231x elapsed=0:00:35.13    \nframe=  249 fps=7.0 q=35.0 size=     768KiB time=00:00:08.30 bitrate= 758.0kbits/s speed=0.233x elapsed=0:00:35.65    \nframe=  253 fps=7.0 q=35.0 size=     768KiB time=00:00:08.43 bitrate= 746.0kbits/s speed=0.233x elapsed=0:00:36.17    \nframe=  257 fps=7.0 q=23.0 size=     768KiB time=00:00:08.56 bitrate= 734.4kbits/s speed=0.233x elapsed=0:00:36.69    \nframe=  262 fps=7.0 q=34.0 size=    1792KiB time=00:00:08.73 bitrate=1680.9kbits/s speed=0.235x elapsed=0:00:37.20    \nframe=  266 fps=7.1 q=35.0 size=    1792KiB time=00:00:08.86 bitrate=1655.6kbits/s speed=0.235x elapsed=0:00:37.71    \nframe=  270 fps=7.1 q=35.0 size=    1792KiB time=00:00:09.00 bitrate=1631.1kbits/s speed=0.235x elapsed=0:00:38.23    \nframe=  274 fps=7.1 q=35.0 size=    1792KiB time=00:00:09.13 bitrate=1607.3kbits/s speed=0.236x elapsed=0:00:38.75    \nframe=  278 fps=7.1 q=35.0 size=    1792KiB time=00:00:09.26 bitrate=1584.2kbits/s speed=0.236x elapsed=0:00:39.27    \nframe=  282 fps=7.1 q=35.0 size=    1792KiB time=00:00:09.40 bitrate=1561.7kbits/s speed=0.236x elapsed=0:00:39.78    \nframe=  286 fps=7.1 q=38.0 size=    1792KiB time=00:00:09.53 bitrate=1539.9kbits/s speed=0.237x elapsed=0:00:40.30    \nframe=  290 fps=7.1 q=40.0 size=    1792KiB time=00:00:09.66 bitrate=1518.6kbits/s speed=0.237x elapsed=0:00:40.80    \nframe=  294 fps=7.1 q=41.0 size=    1792KiB time=00:00:09.80 bitrate=1498.0kbits/s speed=0.237x elapsed=0:00:41.32    \nframe=  298 fps=7.1 q=42.0 size=    1792KiB time=00:00:09.93 bitrate=1477.9kbits/s speed=0.237x elapsed=0:00:41.84    \nframe=  302 fps=7.1 q=42.0 size=    1792KiB time=00:00:10.06 bitrate=1458.3kbits/s speed=0.238x elapsed=0:00:42.36    \nframe=  306 fps=7.1 q=44.0 size=    1792KiB time=00:00:10.20 bitrate=1439.2kbits/s speed=0.238x elapsed=0:00:42.87    \nframe=  310 fps=7.1 q=45.0 size=    1792KiB time=00:00:10.33 bitrate=1420.7kbits/s speed=0.238x elapsed=0:00:43.38    \nframe=  314 fps=7.2 q=45.0 size=    1792KiB time=00:00:10.46 bitrate=1402.6kbits/s speed=0.238x elapsed=0:00:43.91    \nframe=  317 fps=7.1 q=32.0 size=    1792KiB time=00:00:10.56 bitrate=1389.3kbits/s speed=0.238x elapsed=0:00:44.42    \nframe=  322 fps=7.2 q=43.0 size=    1792KiB time=00:00:10.73 bitrate=1367.7kbits/s speed=0.239x elapsed=0:00:44.93    \nframe=  325 fps=7.1 q=43.0 size=    1792KiB time=00:00:10.83 bitrate=1355.1kbits/s speed=0.238x elapsed=0:00:45.45    \nframe=  329 fps=7.2 q=30.0 size=    1792KiB time=00:00:10.96 bitrate=1338.6kbits/s speed=0.239x elapsed=0:00:45.96    \nframe=  334 fps=7.2 q=39.0 size=    1792KiB time=00:00:11.13 bitrate=1318.6kbits/s speed=0.239x elapsed=0:00:46.48    \nframe=  338 fps=7.2 q=43.0 size=    1792KiB time=00:00:11.26 bitrate=1303.0kbits/s speed=0.24x elapsed=0:00:46.99    \nframe=  343 fps=7.2 q=43.0 size=    1792KiB time=00:00:11.43 bitrate=1284.0kbits/s speed=0.241x elapsed=0:00:47.51    \nframe=  347 fps=7.2 q=42.0 size=    1792KiB time=00:00:11.56 bitrate=1269.2kbits/s speed=0.241x elapsed=0:00:48.03    \nframe=  353 fps=7.3 q=43.0 size=    1792KiB time=00:00:11.76 bitrate=1247.6kbits/s speed=0.242x elapsed=0:00:48.54    \nframe=  356 fps=7.3 q=43.0 size=    1792KiB time=00:00:11.86 bitrate=1237.1kbits/s speed=0.242x elapsed=0:00:49.06    \nframe=  362 fps=7.3 q=43.0 size=    1792KiB time=00:00:12.06 bitrate=1216.6kbits/s speed=0.243x elapsed=0:00:49.57    \nframe=  365 fps=7.3 q=19.0 size=    1792KiB time=00:00:12.16 bitrate=1206.6kbits/s speed=0.243x elapsed=0:00:50.09    \nframe=  371 fps=7.3 q=40.0 size=    1792KiB time=00:00:12.36 bitrate=1187.1kbits/s speed=0.244x elapsed=0:00:50.61    \nframe=  376 fps=7.4 q=39.0 size=    1792KiB time=00:00:12.53 bitrate=1171.3kbits/s speed=0.245x elapsed=0:00:51.12    \nframe=  382 fps=7.4 q=38.0 size=    1792KiB time=00:00:12.73 bitrate=1152.9kbits/s speed=0.247x elapsed=0:00:51.63    \nframe=  386 fps=7.4 q=38.0 size=    2816KiB time=00:00:12.86 bitrate=1792.9kbits/s speed=0.247x elapsed=0:00:52.15    \nframe=  392 fps=7.4 q=38.0 size=    2816KiB time=00:00:13.06 bitrate=1765.5kbits/s speed=0.248x elapsed=0:00:52.66    \nframe=  397 fps=7.5 q=37.0 size=    2816KiB time=00:00:13.23 bitrate=1743.2kbits/s speed=0.249x elapsed=0:00:53.18    \nframe=  403 fps=7.5 q=36.0 size=    2816KiB time=00:00:13.43 bitrate=1717.3kbits/s speed=0.25x elapsed=0:00:53.69    \nframe=  406 fps=7.5 q=36.0 size=    2816KiB time=00:00:13.53 bitrate=1704.6kbits/s speed=0.25x elapsed=0:00:54.21    \nframe=  412 fps=7.5 q=33.0 size=    2816KiB time=00:00:13.73 bitrate=1679.8kbits/s speed=0.251x elapsed=0:00:54.73    \nframe=  416 fps=7.5 q=32.0 size=    2816KiB time=00:00:13.86 bitrate=1663.6kbits/s speed=0.251x elapsed=0:00:55.25    \nframe=  422 fps=7.6 q=32.0 size=    2816KiB time=00:00:14.06 bitrate=1640.0kbits/s speed=0.252x elapsed=0:00:55.76    \nframe=  425 fps=7.6 q=9.0 size=    2816KiB time=00:00:14.16 bitrate=1628.4kbits/s speed=0.252x elapsed=0:00:56.29    \nframe=  431 fps=7.6 q=32.0 size=    2816KiB time=00:00:14.36 bitrate=1605.7kbits/s speed=0.253x elapsed=0:00:56.79    \nframe=  435 fps=7.6 q=16.0 size=    2816KiB time=00:00:14.50 bitrate=1590.9kbits/s speed=0.253x elapsed=0:00:57.32    \nframe=  440 fps=7.6 q=26.0 size=    2816KiB time=00:00:14.66 bitrate=1572.9kbits/s speed=0.254x elapsed=0:00:57.83    \nframe=  444 fps=7.6 q=28.0 size=    2816KiB time=00:00:14.80 bitrate=1558.7kbits/s speed=0.254x elapsed=0:00:58.34    \nframe=  448 fps=7.6 q=29.0 size=    2816KiB time=00:00:14.93 bitrate=1544.8kbits/s speed=0.254x elapsed=0:00:58.86    \nframe=  454 fps=7.6 q=28.0 size=    2816KiB time=00:00:15.13 bitrate=1524.4kbits/s speed=0.255x elapsed=0:00:59.37    \nframe=  458 fps=7.6 q=28.0 size=    2816KiB time=00:00:15.26 bitrate=1511.0kbits/s speed=0.255x elapsed=0:00:59.89    \nframe=  463 fps=7.7 q=27.0 size=    2816KiB time=00:00:15.43 bitrate=1494.7kbits/s speed=0.255x elapsed=0:01:00.40    \nframe=  466 fps=7.6 q=34.0 size=    2816KiB time=00:00:15.53 bitrate=1485.1kbits/s speed=0.255x elapsed=0:01:00.92    \nframe=  473 fps=7.7 q=30.0 size=    2816KiB time=00:00:15.76 bitrate=1463.1kbits/s speed=0.257x elapsed=0:01:01.44    \nframe=  477 fps=7.7 q=29.0 size=    2816KiB time=00:00:15.90 bitrate=1450.9kbits/s speed=0.257x elapsed=0:01:01.95    \nframe=  484 fps=7.7 q=29.0 size=    2816KiB time=00:00:16.13 bitrate=1429.9kbits/s speed=0.258x elapsed=0:01:02.47    \nframe=  487 fps=7.7 q=29.0 size=    2816KiB time=00:00:16.23 bitrate=1421.1kbits/s speed=0.258x elapsed=0:01:02.98    \nframe=  493 fps=7.8 q=30.0 size=    2816KiB time=00:00:16.43 bitrate=1403.8kbits/s speed=0.259x elapsed=0:01:03.50    \nframe=  496 fps=7.7 q=25.0 size=    2816KiB time=00:00:16.53 bitrate=1395.3kbits/s speed=0.258x elapsed=0:01:04.01    \nframe=  501 fps=7.8 q=27.0 size=    2816KiB time=00:00:16.70 bitrate=1381.4kbits/s speed=0.259x elapsed=0:01:04.52    \nframe=  504 fps=7.7 q=28.0 size=    2816KiB time=00:00:16.80 bitrate=1373.1kbits/s speed=0.258x elapsed=0:01:05.04    \nframe=  509 fps=7.8 q=30.0 size=    2816KiB time=00:00:16.96 bitrate=1359.6kbits/s speed=0.259x elapsed=0:01:05.55    \nframe=  512 fps=7.7 q=29.0 size=    2816KiB time=00:00:17.06 bitrate=1351.7kbits/s speed=0.258x elapsed=0:01:06.08    \nframe=  518 fps=7.8 q=29.0 size=    3584KiB time=00:00:17.26 bitrate=1700.4kbits/s speed=0.259x elapsed=0:01:06.58    \nframe=  522 fps=7.8 q=28.0 size=    3584KiB time=00:00:17.40 bitrate=1687.4kbits/s speed=0.259x elapsed=0:01:07.11    \nframe=  528 fps=7.8 q=32.0 size=    3584KiB time=00:00:17.60 bitrate=1668.2kbits/s speed=0.26x elapsed=0:01:07.62    \nframe=  532 fps=7.8 q=32.0 size=    3584KiB time=00:00:17.73 bitrate=1655.6kbits/s speed=0.26x elapsed=0:01:08.14    \nframe=  536 fps=7.8 q=26.0 size=    3584KiB time=00:00:17.86 bitrate=1643.3kbits/s speed=0.26x elapsed=0:01:08.66    \nframe=  539 fps=7.8 q=7.0 size=    3584KiB time=00:00:17.96 bitrate=1634.1kbits/s speed=0.26x elapsed=0:01:09.17    \nframe=  544 fps=7.8 q=33.0 size=    3584KiB time=00:00:18.13 bitrate=1619.1kbits/s speed=0.26x elapsed=0:01:09.69    \nframe=  548 fps=7.8 q=33.0 size=    3584KiB time=00:00:18.26 bitrate=1607.3kbits/s speed=0.26x elapsed=0:01:10.20    \nframe=  552 fps=7.8 q=28.0 size=    3584KiB time=00:00:18.40 bitrate=1595.7kbits/s speed=0.26x elapsed=0:01:10.72    \nframe=  555 fps=7.8 q=17.0 size=    3584KiB time=00:00:18.50 bitrate=1587.0kbits/s speed=0.26x elapsed=0:01:11.23    \nframe=  560 fps=7.8 q=30.0 size=    3584KiB time=00:00:18.66 bitrate=1572.9kbits/s speed=0.26x elapsed=0:01:11.75    \nframe=  564 fps=7.8 q=29.0 size=    3584KiB time=00:00:18.80 bitrate=1561.7kbits/s speed=0.26x elapsed=0:01:12.27    \nframe=  567 fps=7.8 q=17.0 size=    3584KiB time=00:00:18.90 bitrate=1553.4kbits/s speed=0.26x elapsed=0:01:12.79    \nframe=  571 fps=7.8 q=30.0 size=    3584KiB time=00:00:19.03 bitrate=1542.6kbits/s speed=0.26x elapsed=0:01:13.29    \nframe=  575 fps=7.8 q=29.0 size=    3584KiB time=00:00:19.16 bitrate=1531.8kbits/s speed=0.26x elapsed=0:01:13.81    \nframe=  576 fps=7.7 q=29.0 size=    3584KiB time=00:00:19.20 bitrate=1529.2kbits/s speed=0.258x elapsed=0:01:14.32    \nframe=  576 fps=7.7 q=29.0 size=    3584KiB time=00:00:19.20 bitrate=1529.2kbits/s speed=0.257x elapsed=0:01:14.84    \nframe=  576 fps=7.6 q=29.0 size=    3584KiB time=00:00:19.20 bitrate=1529.2kbits/s speed=0.255x elapsed=0:01:15.36    \nframe=  576 fps=7.6 q=29.0 size=    3584KiB time=00:00:19.20 bitrate=1529.2kbits/s speed=0.253x elapsed=0:01:15.87    \nframe=  576 fps=7.5 q=29.0 size=    3584KiB time=00:00:19.20 bitrate=1529.2kbits/s speed=0.251x elapsed=0:01:16.39    \n[out#0/webm @ 000001185f899ac0] video:4573KiB audio:0KiB subtitle:0KiB other streams:0KiB global headers:0KiB muxing overhead: 0.107958%\nframe=  600 fps=7.8 q=34.0 Lsize=    4578KiB time=00:00:20.00 bitrate=1875.0kbits/s speed=0.26x elapsed=0:01:16.87    \n",
  "seconds": 77.67273783683777,
  "probe_out": {}
}